<svg xmlns="http://www.w3.org/2000/svg" viewBox="0 0 67 21" width="67" height="21">
	<style>
		tspan { white-space:pre }
		.shp0 { fill: #ffffff } 
	</style>
	<g id="Group 3">
		<g id="Text">
			<g id="Title">
				<path id="Shape" class="shp0" d="M10.77 9C8.12 9 5.42 10.91 5.42 13.25C5.42 14.14 5.72 15.09 6.57 15.68C6.98 16 6.98 16.48 6.5 17C5.94 17.61 5.12 18.08 4.29 18.08C3.3 18.08 1.98 17.15 1.98 15.35C1.98 14.36 2.62 12.21 5.22 10.26C7.95 8.18 10.29 7.49 12.97 7.32C18.65 2.79 23.24 1.96 26.57 1.96C30.21 1.96 33.46 3.13 35.1 3.78C36.58 4.35 42.29 6.73 46.34 8.51C50.58 10.26 54.24 11.32 56.75 11.32C58.77 11.32 61.67 10.61 61.67 8.14C61.67 7.23 61.3 6.6 60.8 6.23C60.52 5.99 60.3 5.65 60.3 5.34C60.3 4.43 61.13 3.05 62.56 3.05C64.16 3.05 65.02 4.65 65.02 5.86C65.02 9.16 61.43 11.39 59.01 12.38C54.55 17.13 50.04 19.04 45.67 19.04C42.46 19.04 39.39 18.17 35.32 16.7C32.24 15.57 22.59 11.63 18.71 10.39C15.14 9.29 13.1 9 10.81 9L10.77 9ZM23.22 3.76C20.25 3.76 17.44 5.26 16.05 7.47C17.74 7.49 20.29 7.86 24.51 9.39C28.74 10.82 36.53 14.16 39.26 15.09C42.29 16.09 45.19 16.91 48.07 16.91C51.3 16.91 54.18 15.85 55.69 13.12C52.68 13.51 49.85 13.03 45.67 11.41C42.46 10.17 33.63 6.12 30.64 5.11C28.13 4.26 25.71 3.76 23.26 3.76L23.22 3.76Z" />
			</g>
		</g>
	</g>
</svg>